<?xml version="1.0" encoding="UTF-8" standalone="no"?>
<svg width="59px" height="58px" viewBox="0 0 59 58" version="1.1" xmlns="http://www.w3.org/2000/svg" xmlns:xlink="http://www.w3.org/1999/xlink">
    <!-- Generator: Sketch 40.1 (33804) - http://www.bohemiancoding.com/sketch -->
    <title>21 -Internet Explorer- (social, media, communication, retro)</title>
    <desc>Created with Sketch.</desc>
    <defs></defs>
    <g id="Page-1" stroke="none" stroke-width="1" fill="none" fill-rule="evenodd">
        <g id="Icons" transform="translate(-121.000000, -619.000000)">
            <g id="21--Internet-Explorer--(social,-media,-communication,-retro)" transform="translate(122.000000, 620.000000)">
                <path d="M20,33.0001 C20,34.8721 20.829,36.5221 21.693,38.2361 C22.707,40.0321 24.096,41.4541 25.855,42.5071 C27.613,43.5581 29.568,44.0851 31.716,44.0851 C33.865,44.0851 35.823,43.5581 37.581,42.5071 C39.338,41.4521 40.726,39.7941 41.741,38.0001 L55.697,38.0001 C53.896,43.0721 50.771,47.4631 46.317,50.6971 C41.859,53.9341 36.855,55.5531 31.307,55.5531 C27.164,55.5531 23.255,54.6571 19.582,52.8611 C11.374,56.8411 5.471,57.0361 1.876,53.4471 C0.624,52.2791 0,50.3281 0,47.5971 C0,44.8671 0.527,41.8241 1.584,38.4691 C2.639,35.1161 4.397,31.4281 6.861,27.4111 C8.794,24.2551 10.203,21.7271 15.594,16.4701 C17.549,14.4411 18.455,13.4671 19,13.0001 C14.152,15.3371 8,19.5621 3,24.0001 C5.958,16.6251 10.187,12.7501 15.301,9.5631 C20.812,6.2501 25.286,4.0631 31.307,4.0631 C31.932,4.0631 32.555,4.1021 33.181,4.1791 C37.56,2.2281 41.546,1.1371 45.143,0.9021 C48.738,0.6671 51.277,1.2531 52.763,2.6571 C55.733,5.7001 56.007,10.4591 53.584,16.9331 C55.85,20.9191 56,25.3981 56,30.0001 C56,31.0921 56.077,32.1391 56,33.0001 L43.031,33.0001 L20,33.0001 Z" id="Fill-101" fill="#00C8F6"></path>
                <path d="M16,50.0001 C10.764,46.8021 9.027,44.2471 6.916,38.4711 C3.399,45.3381 2.422,48.4261 5,51.0001 C7.268,53.2631 9.978,52.7291 16,50.0001" id="Fill-102" fill="#FFFFFF"></path>
                <path d="M42,26.0001 C41.843,23.1901 40.804,20.7441 38.695,18.7541 C36.584,16.7661 34.102,16.0001 31.25,16.0001 C28.394,16.0001 25.914,16.7661 23.804,18.7541 C21.691,20.7441 20.157,23.1901 20,26.0001 L42,26.0001 Z" id="Fill-103" fill="#FFFFFF"></path>
                <path d="M40.8044,5.9407 C45.6044,8.2917 46.4164,8.7707 50.0004,12.9997 C51.2374,9.6747 51.3644,8.8247 50.9164,7.7847 C50.4024,6.5917 49.4374,5.6427 48.2824,5.0477 C46.5044,4.1327 45.2514,4.0557 40.8044,5.9407" id="Fill-104" fill="#FFFFFF"></path>
                <path d="M40.8044,5.9407 C45.6044,8.2917 46.4164,8.7707 50.0004,12.9997 C51.2374,9.6747 51.3644,8.8247 50.9164,7.7847 C50.4024,6.5917 49.4374,5.6427 48.2824,5.0477 C46.5044,4.1327 45.2514,4.0557 40.8044,5.9407 L40.8044,5.9407 Z M42.0004,25.9997 C41.8434,23.1907 40.8044,20.7437 38.6954,18.7537 C36.5834,16.7657 34.1024,15.9997 31.2494,15.9997 C28.3934,15.9997 25.9134,16.7657 23.8044,18.7537 C21.6914,20.7437 20.1564,23.1907 20.0004,25.9997 L42.0004,25.9997 L42.0004,25.9997 Z M16.0004,49.9997 C10.7634,46.8017 9.0274,44.2477 6.9164,38.4717 C3.3994,45.3377 2.4224,48.4257 5.0004,50.9997 C7.2684,53.2627 9.9784,52.7297 16.0004,49.9997 L16.0004,49.9997 Z M20.0004,32.9997 C20.0004,34.8727 20.8294,36.5217 21.6934,38.2357 C22.7064,40.0317 24.0964,41.4537 25.8544,42.5067 C27.6134,43.5577 29.5674,44.0847 31.7164,44.0847 C33.8654,44.0847 35.8234,43.5577 37.5814,42.5067 C39.3384,41.4517 40.7264,39.7937 41.7414,37.9997 L55.6974,37.9997 C53.8954,43.0727 50.7704,47.4627 46.3164,50.6967 C41.8594,53.9337 36.8544,55.5537 31.3064,55.5537 C27.1644,55.5537 23.2554,54.6577 19.5814,52.8617 C11.3734,56.8417 5.4714,57.0357 1.8764,53.4477 C0.6234,52.2787 0.0004,50.3277 0.0004,47.5967 C0.0004,44.8677 0.5274,41.8247 1.5844,38.4697 C2.6384,35.1167 4.3974,31.4287 6.8614,27.4107 C8.7934,24.2557 10.2034,21.7267 15.5944,16.4697 C17.5494,14.4407 18.4544,13.4667 19.0004,12.9997 C14.1524,15.3377 8.0004,19.5627 3.0004,23.9997 C5.9584,16.6247 10.1874,12.7497 15.3004,9.5627 C20.8124,6.2497 25.2864,4.0627 31.3064,4.0627 C31.9324,4.0627 32.5554,4.1017 33.1804,4.1787 C37.5604,2.2277 41.5454,1.1377 45.1424,0.9027 C48.7384,0.6667 51.2764,1.2537 52.7624,2.6567 C55.7324,5.6997 56.0074,10.4587 53.5844,16.9337 C55.8504,20.9187 56.0004,25.3977 56.0004,29.9997 C56.0004,31.0927 56.0764,32.1397 56.0004,32.9997 L43.0314,32.9997 L20.0004,32.9997 L20.0004,32.9997 Z" id="Stroke-190" stroke="#000000" stroke-width="2"></path>
            </g>
        </g>
    </g>
</svg>