<svg xmlns="http://www.w3.org/2000/svg" viewBox="0 0 64 64"><g id="IP_11" data-name="IP 11"><path d="M22,21.21A3.75,3.75,0,1,0,25.73,25,3.75,3.75,0,0,0,22,21.21Zm0,6.5A2.75,2.75,0,1,1,24.73,25,2.75,2.75,0,0,1,22,27.71Z"/><path d="M12.05,7.24a1.43,1.43,0,1,0,1.43,1.43A1.43,1.43,0,0,0,12.05,7.24Zm0,1.86a.43.43,0,0,1,0-.86.43.43,0,0,1,0,.86Z"/><path d="M12.05,12.08a1.43,1.43,0,1,0,1.43,1.43A1.43,1.43,0,0,0,12.05,12.08Zm0,1.86a.43.43,0,0,1,0-.86.43.43,0,0,1,0,.86Z"/><path d="M15.71,9.62a1.43,1.43,0,1,0,1.43,1.43A1.43,1.43,0,0,0,15.71,9.62Zm0,1.86a.43.43,0,1,1,.43-.43A.43.43,0,0,1,15.71,11.48Z"/><path d="M15.59,8.67A.72.72,0,0,0,16.31,8a.72.72,0,1,0-1.44,0A.72.72,0,0,0,15.59,8.67Z"/><path d="M18.84,8a2.26,2.26,0,0,0-2.26-2.26H11.15A2.27,2.27,0,0,0,8.88,8v6.2a2.27,2.27,0,0,0,2.27,2.27h5.43a2.27,2.27,0,0,0,2.26-2.27Zm-1,6.2a1.27,1.27,0,0,1-1.26,1.27H11.15a1.27,1.27,0,0,1-1.27-1.27V8a1.27,1.27,0,0,1,1.27-1.26h5.43A1.27,1.27,0,0,1,17.84,8Z"/><path d="M53.4,3.5H10.6A4.13,4.13,0,0,0,6.48,7.62V56.38A4.13,4.13,0,0,0,10.6,60.5H53.4a4.13,4.13,0,0,0,4.12-4.12V7.63A4.13,4.13,0,0,0,53.4,3.5ZM49,4.5V5a1.25,1.25,0,0,1-1.25,1.25H36.27A1.25,1.25,0,0,1,35,5V4.5ZM10.6,59.5a3.12,3.12,0,0,1-3.12-3.12V7.62A3.12,3.12,0,0,1,10.6,4.5H28a4.13,4.13,0,0,0-1.46,3.13V56.38A4.12,4.12,0,0,0,28,59.5Zm45.92-3.12A3.12,3.12,0,0,1,53.4,59.5H30.65a3.13,3.13,0,0,1-3.13-3.12V7.63A3.13,3.13,0,0,1,30.65,4.5H34V5a2.25,2.25,0,0,0,2.25,2.25h11.5A2.25,2.25,0,0,0,50,5V4.5H53.4a3.13,3.13,0,0,1,3.12,3.13Z"/><path d="M38.16,5.92h6a.51.51,0,0,0,.5-.5.5.5,0,0,0-.5-.5h-6a.5.5,0,0,0-.5.5A.5.5,0,0,0,38.16,5.92Z"/><path d="M45.71,5.92h.18a.51.51,0,0,0,.5-.5.5.5,0,0,0-.5-.5h-.18a.5.5,0,0,0-.5.5A.51.51,0,0,0,45.71,5.92Z"/></g></svg>